<svg width="50" height="50" viewBox="0 0 50 50" fill="none" xmlns="http://www.w3.org/2000/svg">
    <path
        d="M25 50C38.8071 50 50 38.8071 50 25C50 11.1929 38.8071 0 25 0C11.1929 0 0 11.1929 0 25C0 38.8071 11.1929 50 25 50Z"
        fill="#FFFFFF" />
    <path
        d="M41 25.0889V25.9604C40.987 26.2169 40.9715 26.473 40.9531 26.7288C40.8077 28.7515 40.1838 30.7282 38.9664 32.3242C37.7736 33.888 36.0781 34.9547 34.1972 35.4954C33.2567 35.7658 32.2852 35.9248 31.2829 35.9724C31.1286 35.9798 30.9744 35.989 30.8201 36H26.7867C26.6306 35.9682 26.4988 35.9019 26.3913 35.8008C26.3215 35.735 26.2621 35.6512 26.2132 35.5494C25.4397 33.9392 24.6781 32.3578 23.9285 30.8048C23.9243 30.7959 23.9178 30.7933 23.9091 30.797C19.982 32.4329 16.0077 34.0887 11.9862 35.7644C11.7382 35.8678 11.5474 35.9305 11.4138 35.9525C10.9675 36.0259 10.5445 35.9535 10.1448 35.7354C10.0072 35.6603 9.86288 35.5598 9.71169 35.4339C8.98937 34.8317 8.80773 33.8015 9.20874 32.9836C11.8866 27.5248 14.6024 21.9895 17.356 16.3777C17.4524 16.1811 17.5648 15.9982 17.6932 15.8292C18.2311 15.1215 19.1533 14.8301 20.0016 15.0987C20.6218 15.2953 21.0736 15.6881 21.357 16.2769C22.6269 18.9167 23.8982 21.555 25.1707 24.1917C25.2186 24.2909 25.2408 24.3774 25.237 24.4513C25.2304 24.5808 25.1562 24.677 25.0144 24.7403C23.9448 25.2162 22.8946 25.6835 21.8638 26.1424C21.6772 26.2257 21.4568 26.1675 21.3669 25.98C20.6763 24.5394 20.0124 23.1613 19.3752 21.8458C19.3741 21.8435 19.3724 21.8414 19.3702 21.84C19.368 21.8387 19.3655 21.8379 19.3629 21.8379C19.3603 21.8379 19.3576 21.8387 19.3554 21.84C19.3532 21.8414 19.3513 21.8435 19.3501 21.8458L15.2113 30.2819C15.2056 30.2932 15.2086 30.2964 15.2201 30.2916C20.3525 28.1331 25.4481 25.9883 30.5069 23.8569C30.7903 23.7378 31.0066 23.6658 31.156 23.641C31.3504 23.6086 31.5462 23.6068 31.7435 23.6356C31.8209 23.647 31.8964 23.6567 31.9703 23.6646C32.5369 23.7257 33.1604 23.7913 33.8407 23.8616C33.9791 23.8759 34.0862 23.9043 34.1619 23.9467C34.3757 24.0669 34.5012 24.3154 34.4466 24.5607C34.4287 24.6404 34.3852 24.7314 34.316 24.834C34.0248 25.2655 33.7336 25.7093 33.4428 26.1656C33.2264 26.5049 33.0955 26.702 33.0499 26.7571C32.8519 26.9964 32.6214 27.171 32.3582 27.2806C30.8711 27.9005 29.3847 28.5195 27.8991 29.1377C27.8969 29.1385 27.8949 29.1399 27.8932 29.1416C27.8915 29.1433 27.8903 29.1453 27.8893 29.1476C27.8885 29.1499 27.8882 29.1522 27.8883 29.1547C27.8883 29.1571 27.8889 29.1595 27.8899 29.1616L29.1964 31.8748C29.1978 31.8777 29.2001 31.8803 29.2029 31.8821C29.2057 31.8838 29.2089 31.8848 29.2122 31.8848C30.2639 31.8701 31.3181 31.7492 32.2983 31.4385C33.0605 31.1967 33.769 30.8452 34.3672 30.3431C35.0846 29.7406 35.6035 28.974 35.924 28.043C36.2361 27.1361 36.3352 26.1507 36.318 25.1744C36.2887 23.5041 35.8472 21.814 34.6003 20.6439C33.9805 20.062 33.2676 19.6472 32.4616 19.3995C32.1117 19.292 31.7299 19.212 31.3164 19.1596C31.1003 19.1324 30.8675 19.1189 30.618 19.1192C28.7441 19.1223 26.9265 19.1226 25.1654 19.1202C25.0405 19.1202 24.9188 19.0376 24.8628 18.9267C24.3043 17.8184 23.7537 16.7249 23.2108 15.6461C23.0852 15.3972 23.2471 15.1187 23.524 15.1183C26.0088 15.115 28.4283 15.115 30.7824 15.1183C31.2021 15.1188 31.704 15.1528 32.2881 15.2202C32.9363 15.2948 33.5742 15.4219 34.2018 15.6014C35.167 15.8775 36.0687 16.2903 36.9069 16.8398C38.4091 17.8243 39.5381 19.2736 40.212 20.9773C40.6283 22.0282 40.8617 23.1608 40.9502 24.2932C40.9594 24.4079 40.976 24.6731 41 25.0889Z"
        fill="#3B1E5E" />
</svg>
    