<svg width="70" height="50" viewBox="0 0 70 50" fill="none" xmlns="http://www.w3.org/2000/svg">
    <mask id="mask0_10_89" style="mask-type:luminance" maskUnits="userSpaceOnUse" x="0" y="0"
        width="70" height="50">
        <path d="M0.520874 0.755371H69.448V49.6668H0.520874V0.755371Z" fill="white" />
    </mask>
    <g mask="url(#mask0_10_89)">
        <path
            d="M2.95835 33.042V3.71387C2.95835 2.08366 4.28127 0.760742 5.91148 0.760742H35.224C36.8542 0.760742 38.1771 2.08366 38.1771 3.71387V33.042C38.1771 33.5889 37.7344 34.0264 37.1927 34.0264H3.94273C3.40106 34.0264 2.95835 33.5889 2.95835 33.042ZM26.6302 43.0941C26.6302 46.4743 23.8906 49.2139 20.5104 49.2139C17.1302 49.2139 14.3906 46.4743 14.3906 43.0941C14.3906 39.7139 17.1302 36.9691 20.5104 36.9691C23.8906 36.9691 26.6302 39.7139 26.6302 43.0941ZM23.5729 43.0941C23.5729 41.4014 22.2031 40.0316 20.5104 40.0316C18.8229 40.0316 17.4479 41.4014 17.4479 43.0941C17.4479 44.7816 18.8229 46.1514 20.5104 46.1514C22.2031 46.1514 23.5729 44.7816 23.5729 43.0941ZM15.2396 36.9691H1.52085C0.979187 36.9691 0.541687 37.4118 0.541687 37.9535V40.9378C0.541687 41.4847 0.979187 41.9222 1.52085 41.9222H12.5156C12.8021 39.9535 13.7969 38.2139 15.2396 36.9691ZM58.6563 43.0941C58.6563 46.4743 55.9167 49.2139 52.5365 49.2139C49.1563 49.2139 46.4167 46.4743 46.4167 43.0941C46.4167 39.7139 49.1563 36.9691 52.5365 36.9691C55.9167 36.9691 58.6563 39.7139 58.6563 43.0941ZM55.599 43.0941C55.599 41.4014 54.2292 40.0316 52.5365 40.0316C50.849 40.0316 49.474 41.4014 49.474 43.0941C49.474 44.7816 50.849 46.1514 52.5365 46.1514C54.2292 46.1514 55.599 44.7816 55.599 43.0941ZM69.4792 37.9535V40.9378C69.4792 41.4847 69.0365 41.9222 68.4948 41.9222H60.5313C59.9584 38.016 56.599 35.0055 52.5365 35.0055C48.474 35.0055 45.1146 38.016 44.5417 41.9222H28.5052C28.2188 39.9535 27.224 38.2139 25.7813 36.9691H40.9896V8.83366C40.9896 7.74512 41.8698 6.86491 42.9584 6.86491H52.2448C54.8594 6.86491 57.3021 8.16699 58.7656 10.3337L64.7552 19.1982C65.6302 20.5003 66.099 22.0316 66.099 23.6045V36.9691H68.4948C69.0365 36.9691 69.4792 37.4118 69.4792 37.9535ZM59.5 19.4274L54.7136 12.6253C54.5261 12.3597 54.2292 12.2087 53.9063 12.2087H46.4375C45.8959 12.2087 45.4531 12.6462 45.4531 13.1878V19.9951C45.4531 20.5368 45.8959 20.9743 46.4375 20.9743H58.6927C59.4896 20.9743 59.9584 20.0785 59.5 19.4274Z"
            fill="white" />
    </g>
</svg>
    