<svg width="43" height="43" viewBox="0 0 43 43" fill="none" xmlns="http://www.w3.org/2000/svg">
    <mask id="mask0_10_1887" style="mask-type:luminance" maskUnits="userSpaceOnUse" x="0" y="0"
        width="43" height="43">
        <path d="M0.151062 0.833496H42.0729V42.7554H0.151062V0.833496Z" fill="white" />
    </mask>
    <g mask="url(#mask0_10_1887)">
        <path
            d="M31.3229 0.833496H10.5521C4.83856 0.833496 0.151062 5.521 0.151062 11.271V32.0418C0.151062 37.7554 4.83856 42.4429 10.5521 42.4429H31.3229C37.0677 42.4429 41.7604 37.7554 41.7604 32.0054V11.271C41.7604 5.521 37.0677 0.833496 31.3229 0.833496ZM26.5365 21.6408H22.6042V34.5158H17.6511V21.6408H15.0104V16.3543H17.3229V14.1095C17.3229 11.995 18.3802 8.66162 22.8386 8.66162H26.8959V13.0522H24.0261C23.5625 13.0522 22.9375 13.3491 22.9375 14.3752V16.3543H26.9948L26.5365 21.6408Z"
            fill="#803821" />
    </g>
</svg>
    