<svg width="42" height="42" viewBox="0 0 42 42" fill="none" xmlns="http://www.w3.org/2000/svg">
    <mask id="mask0_10_1935" style="mask-type:luminance" maskUnits="userSpaceOnUse" x="0" y="0"
        width="42" height="42">
        <path d="M0 0H41.9219V41.9219H0V0Z" fill="white" />
    </mask>
    <g mask="url(#mask0_10_1935)">
        <path
            d="M20.7969 3.75016C26.349 3.75016 27.0052 3.771 29.2031 3.86995C31.224 3.9637 32.3281 4.29704 33.0677 4.5887C34.0313 4.9637 34.724 5.42204 35.4531 6.1512C36.1823 6.88037 36.6302 7.57308 37.0156 8.53662C37.2969 9.26579 37.6354 10.37 37.7344 12.4064C37.8333 14.5991 37.8542 15.2554 37.8542 20.8075C37.8542 26.3595 37.8333 27.0158 37.7344 29.2137C37.6406 31.2397 37.3073 32.3439 37.0156 33.0783C36.6406 34.047 36.1823 34.7397 35.4531 35.4689C34.724 36.1981 34.0313 36.646 33.0677 37.0262C32.3385 37.3127 31.2344 37.646 29.2031 37.7502C27.0052 37.8491 26.349 37.8647 20.7969 37.8647C15.2448 37.8647 14.5885 37.8491 12.3906 37.7502C10.3646 37.6564 9.26042 37.3179 8.52604 37.0262C7.55729 36.6564 6.86458 36.1981 6.13542 35.4689C5.40625 34.7397 4.95833 34.047 4.57813 33.0783C4.29167 32.3491 3.95833 31.2502 3.85417 29.2137C3.75521 27.0158 3.73958 26.3595 3.73958 20.8075C3.73958 15.2554 3.75521 14.5991 3.85417 12.4064C3.94792 10.3804 4.28646 9.2762 4.57813 8.53662C4.94792 7.57308 5.40625 6.88037 6.13542 6.1512C6.86458 5.42204 7.55729 4.97412 8.52604 4.5887C9.25521 4.30746 10.3542 3.96891 12.3906 3.86995C14.5885 3.771 15.2448 3.75016 20.7969 3.75016ZM20.7969 0.00537109C15.1406 0.00537109 14.4427 0.0314138 12.2188 0.130371C10 0.234538 8.48958 0.588704 7.16667 1.09912C5.79687 1.63037 4.64063 2.3387 3.48438 3.49495C2.33333 4.65641 1.625 5.81266 1.09375 7.18245C0.583334 8.50016 0.229167 10.0158 0.125 12.2293C0.0260413 14.4481 0 15.1564 0 20.8022C0 26.4533 0.0260413 27.1564 0.125 29.3804C0.229167 31.5939 0.583334 33.1095 1.09375 34.4325C1.625 35.797 2.33333 36.9533 3.48958 38.1147C4.65104 39.271 5.80729 39.9845 7.17708 40.5106C8.49479 41.021 10.0104 41.3752 12.224 41.4793C14.4427 41.5783 15.151 41.6043 20.8021 41.6043C26.4583 41.6043 27.1563 41.5783 29.3854 41.4793C31.599 41.3752 33.1146 41.021 34.4323 40.5106C35.8021 39.9845 36.9583 39.271 38.1198 38.1147C39.276 36.9533 39.9844 35.797 40.5156 34.4325C41.026 33.1095 41.3802 31.5939 41.4792 29.3804C41.5833 27.1616 41.6094 26.4533 41.6094 20.8022C41.6094 15.146 41.5833 14.4481 41.4792 12.2241C41.3802 10.0054 41.026 8.49496 40.5156 7.17204C39.9844 5.80225 39.276 4.646 38.1198 3.48975C36.9583 2.32829 35.8021 1.61996 34.4323 1.0887C33.1146 0.578288 31.599 0.224121 29.3854 0.125163C27.1563 0.0314134 26.4479 0.00537109 20.7969 0.00537109Z"
            fill="#803821" />
    </g>
    <path
        d="M20.7968 10.125C14.8958 10.125 10.1198 14.901 10.1198 20.8021C10.1198 26.6979 14.9062 31.4844 20.802 31.4844C26.7031 31.4844 31.4895 26.7083 31.4895 20.8021C31.4791 14.901 26.6927 10.125 20.7968 10.125ZM20.7968 27.7396C16.9687 27.7396 13.8645 24.6406 13.8645 20.8073C13.8645 16.9792 16.9687 13.8802 20.7968 13.8802C24.625 13.8802 27.7239 16.9792 27.7239 20.8073C27.7343 24.6302 24.625 27.7396 20.7968 27.7396Z"
        fill="#803821" />
    <path
        d="M34.3958 9.7028C34.3958 11.083 33.276 12.2028 31.901 12.2028C30.5208 12.2028 29.401 11.083 29.401 9.7028C29.401 8.3278 30.5208 7.20801 31.901 7.20801C33.276 7.20801 34.3958 8.31738 34.3958 9.7028Z"
        fill="#803821" />
</svg>
    