<svg width="50" height="50" viewBox="0 0 50 50" fill="none" xmlns="http://www.w3.org/2000/svg">
    <g clip-path="url(#clip0_42_7)">
        <path fill-rule="evenodd" clip-rule="evenodd"
            d="M50 25C50 38.8071 38.8071 50 25 50C11.1929 50 0 38.8071 0 25C0 11.1929 11.1929 0 25 0C38.8071 0 50 11.1929 50 25ZM18.8181 10.09C20.4175 10.0188 20.9294 10 25 10H24.9963C29.0725 10 29.5806 10.0188 31.1819 10.09C32.7775 10.1631 33.8687 10.4162 34.825 10.7875C35.8265 11.1631 36.7335 11.7539 37.4819 12.5181C38.2461 13.2665 38.8369 14.1735 39.2125 15.175C39.5819 16.1275 39.835 17.2188 39.91 18.8144C39.9812 20.4156 40 20.9256 40 25C40 29.0744 39.9812 29.5844 39.91 31.1838C39.835 32.7813 39.5819 33.8706 39.2125 34.825C38.8281 35.8112 38.3162 36.6475 37.4819 37.4819C36.734 38.2459 35.8277 38.8366 34.8269 39.2125C33.8725 39.5837 32.7794 39.835 31.1838 39.91C29.5825 39.9812 29.0744 40 25 40C20.9256 40 20.4156 39.9812 18.8144 39.91C17.2169 39.8369 16.1294 39.5837 15.1731 39.2125C14.1869 38.83 13.3506 38.3162 12.5181 37.4819C11.6838 36.6475 11.1719 35.8112 10.7875 34.825C10.4162 33.8706 10.165 32.7813 10.09 31.1838C10.0188 29.5844 10 29.0744 10 25.0019C10 20.9256 10.0188 20.4156 10.09 18.8125C10.1631 17.2187 10.4162 16.1275 10.7875 15.175C11.1631 14.1735 11.7539 13.2665 12.5181 12.5181C13.2665 11.7539 14.1735 11.1631 15.175 10.7875C16.1294 10.4162 17.2188 10.165 18.8181 10.09ZM25.0019 12.7038H23.6556V12.7C20.86 12.7019 20.3238 12.7206 18.94 12.7844C17.4775 12.8519 16.6844 13.0956 16.1556 13.3019C15.4544 13.5738 14.9556 13.8981 14.4306 14.4231C13.9056 14.9481 13.5794 15.4488 13.3075 16.1481C13.1013 16.6769 12.8575 17.4719 12.79 18.9344C12.7188 20.515 12.7038 20.9856 12.7038 24.9925C12.7038 28.9994 12.7188 29.4738 12.79 31.0544C12.8556 32.5169 13.1013 33.3119 13.3056 33.8387C13.5481 34.49 13.9324 35.0793 14.4306 35.5637C14.9155 36.0606 15.5047 36.4436 16.1556 36.685C16.6844 36.8913 17.4775 37.135 18.94 37.2025C20.5206 37.2738 20.9969 37.2906 25.0019 37.2906C29.0069 37.2906 29.4812 37.2738 31.0619 37.2025C32.5262 37.135 33.3213 36.8913 33.8463 36.685C34.5475 36.4131 35.0462 36.0887 35.5712 35.5637C36.0686 35.0796 36.4522 34.4911 36.6944 33.8406C36.8988 33.3119 37.1444 32.5187 37.21 31.0562C37.2831 29.4756 37.2981 28.9994 37.2981 24.9963C37.2981 20.9931 37.2831 20.5188 37.21 18.9381C37.1444 17.4756 36.9006 16.6806 36.6944 16.1538C36.4225 15.4525 36.0981 14.9537 35.5731 14.4287C35.0481 13.9037 34.5475 13.5775 33.8481 13.3056C33.3194 13.1013 32.5244 12.8556 31.0619 12.79C29.4812 12.7169 29.0069 12.7038 25.0019 12.7038ZM32.3193 15.3308C32.5377 15.2403 32.7717 15.1937 33.0081 15.1937C33.4855 15.1937 33.9434 15.3834 34.2809 15.721C34.6185 16.0585 34.8081 16.5164 34.8081 16.9938C34.8081 17.4711 34.6185 17.929 34.2809 18.2665C33.9434 18.6041 33.4855 18.7938 33.0081 18.7938C32.7717 18.7938 32.5377 18.7472 32.3193 18.6567C32.1009 18.5663 31.9025 18.4337 31.7353 18.2665C31.5682 18.0994 31.4356 17.901 31.3451 17.6826C31.2547 17.4642 31.2081 17.2301 31.2081 16.9938C31.2081 16.7574 31.2547 16.5233 31.3451 16.3049C31.4356 16.0865 31.5682 15.8881 31.7353 15.721C31.9025 15.5538 32.1009 15.4212 32.3193 15.3308ZM22.0168 17.849C22.9654 17.469 23.9801 17.2816 25.0019 17.2975C27.0241 17.3291 28.9529 18.1545 30.3718 19.5958C31.7908 21.037 32.5861 22.9784 32.5861 25.0009C32.5861 27.0234 31.7908 28.9649 30.3718 30.4061C28.9529 31.8473 27.0241 32.6728 25.0019 32.7044C23.9801 32.7203 22.9654 32.5328 22.0168 32.1529C21.0682 31.7729 20.2047 31.208 19.4765 30.4911C18.7483 29.7742 18.1701 28.9196 17.7753 27.977C17.3806 27.0345 17.1773 26.0228 17.1773 25.0009C17.1773 23.9791 17.3806 22.9674 17.7753 22.0249C18.1701 21.0823 18.7483 20.2277 19.4765 19.5108C20.2047 18.7939 21.0682 18.229 22.0168 17.849ZM26.9155 20.38C26.3088 20.1287 25.6586 19.9994 25.0019 19.9994C23.6756 19.9994 22.4037 20.5262 21.4659 21.464C20.5281 22.4018 20.0013 23.6738 20.0013 25C20.0013 26.3262 20.5281 27.5982 21.4659 28.536C22.4037 29.4738 23.6756 30.0006 25.0019 30.0006C25.6586 30.0006 26.3088 29.8713 26.9155 29.62C27.5222 29.3687 28.0735 29.0003 28.5379 28.536C29.0022 28.0716 29.3705 27.5204 29.6219 26.9137C29.8732 26.307 30.0025 25.6567 30.0025 25C30.0025 24.3433 29.8732 23.693 29.6219 23.0863C29.3705 22.4796 29.0022 21.9284 28.5379 21.464C28.0735 20.9997 27.5222 20.6313 26.9155 20.38Z"
            fill="#B0E212" />
    </g>
    <defs>
        <clipPath id="clip0_42_7">
            <rect width="50" height="50" fill="white" />
        </clipPath>
    </defs>
</svg>