<svg width="650" height="588" viewBox="0 0 908 588" fill="none" xmlns="http://www.w3.org/2000/svg">
  <path
    d="M908 282.88V307.25C907.633 314.423 907.19 321.587 906.67 328.74C902.55 385.3 884.86 440.58 850.34 485.21C816.52 528.94 768.45 558.77 715.12 573.89C688.453 581.45 660.91 585.897 632.49 587.23C628.116 587.437 623.743 587.693 619.37 588H505.01C500.583 587.113 496.846 585.257 493.8 582.43C491.82 580.59 490.136 578.247 488.75 575.4C466.816 530.373 445.223 486.147 423.97 442.72C423.85 442.473 423.666 442.4 423.42 442.5C312.073 488.247 199.39 534.55 85.3697 581.41C78.3364 584.303 72.9264 586.057 69.1397 586.67C56.4864 588.723 44.493 586.7 33.1597 580.6C29.2597 578.5 25.1664 575.69 20.8797 572.17C0.399702 555.33 -4.7503 526.52 6.6197 503.65C82.5464 350.997 159.546 196.207 237.62 39.28C240.353 33.78 243.54 28.6667 247.18 23.94C262.43 4.15004 288.58 -3.99996 312.63 3.51004C330.216 9.01004 343.026 19.9934 351.06 36.46C387.066 110.28 423.11 184.057 459.19 257.79C460.55 260.563 461.176 262.983 461.07 265.05C460.883 268.67 458.78 271.363 454.76 273.13C424.433 286.437 394.656 299.507 365.43 312.34C360.14 314.67 353.89 313.04 351.34 307.8C331.76 267.513 312.936 228.977 294.87 192.19C294.839 192.123 294.79 192.067 294.728 192.028C294.666 191.989 294.594 191.968 294.52 191.968C294.446 191.968 294.373 191.989 294.309 192.028C294.246 192.067 294.194 192.123 294.16 192.19L176.81 428.1C176.65 428.413 176.733 428.503 177.06 428.37C322.58 368.01 467.056 308.03 610.49 248.43C618.523 245.097 624.656 243.083 628.89 242.39C634.403 241.483 639.956 241.433 645.55 242.24C647.743 242.56 649.886 242.83 651.98 243.05C668.046 244.757 685.723 246.593 705.01 248.56C708.936 248.96 711.973 249.753 714.12 250.94C720.18 254.3 723.74 261.25 722.19 268.11C721.683 270.337 720.45 272.883 718.49 275.75C710.23 287.817 701.976 300.23 693.73 312.99C687.596 322.477 683.883 327.99 682.59 329.53C676.976 336.223 670.44 341.103 662.98 344.17C620.813 361.503 578.67 378.813 536.55 396.1C536.487 396.125 536.43 396.162 536.383 396.21C536.335 396.258 536.298 396.315 536.273 396.378C536.249 396.441 536.238 396.508 536.241 396.576C536.243 396.643 536.26 396.709 536.29 396.77L573.33 472.64C573.372 472.724 573.437 472.795 573.516 472.845C573.596 472.894 573.687 472.92 573.78 472.92C603.6 472.51 633.49 469.13 661.28 460.44C682.89 453.68 702.98 443.85 719.94 429.81C740.28 412.963 754.993 391.523 764.08 365.49C772.93 340.13 775.74 312.57 775.25 285.27C774.42 238.56 761.9 191.3 726.55 158.58C708.976 142.307 688.763 130.707 665.91 123.78C655.99 120.773 645.166 118.537 633.44 117.07C627.313 116.31 620.713 115.933 613.64 115.94C560.506 116.027 508.973 116.037 459.04 115.97C455.5 115.97 452.05 113.66 450.46 110.56C434.626 79.5667 419.013 48.9867 403.62 18.82C400.06 11.86 404.65 4.07004 412.5 4.06004C482.953 3.9667 551.553 3.9667 618.3 4.06004C630.2 4.07337 644.43 5.02337 660.99 6.91004C679.37 8.9967 697.456 12.55 715.25 17.57C742.616 25.29 768.183 36.8334 791.95 52.2C834.54 79.73 866.55 120.26 885.66 167.9C897.46 197.29 904.08 228.96 906.59 260.63C906.85 263.837 907.32 271.253 908 282.88Z"
    fill="#3B1E5E" />
</svg>
  