<svg width="1014" height="264" viewBox="0 0 1014 264" fill="none" xmlns="http://www.w3.org/2000/svg">
<path fill-rule="evenodd" clip-rule="evenodd" d="M992.131 111.642C992.131 89.601 984.18 71.7466 970.901 71.7466C957.623 71.7466 949.672 89.56 949.672 111.642V217.989C949.672 240.03 957.623 257.884 970.901 257.884C984.18 257.884 992.131 240.03 992.131 217.989V111.642ZM928.401 111.642C928.401 88.2466 946.188 69.1201 970.86 69.1201C995.532 69.1201 1013.32 88.2466 1013.32 111.642V217.989C1013.32 241.384 995.532 260.552 970.86 260.552C946.147 260.552 928.401 241.384 928.401 217.989V111.642Z" fill="white"/>
<path fill-rule="evenodd" clip-rule="evenodd" d="M509.754 260.554L567.377 77.0829H532.336C522.746 77.0829 515.082 92.5158 515.082 111.643H512.377V74.415H590.451L532.828 257.886H567.869C577.459 257.886 585.164 242.453 585.164 223.285H587.828V260.554H509.754Z" fill="white"/>
<path fill-rule="evenodd" clip-rule="evenodd" d="M371.435 77.0829V74.415H339.59L310.369 215.897L276.353 74.415H245.041V77.0829C251.639 77.0829 257.008 82.4598 257.008 89.068V249.923L256.967 249.964V245.983C256.967 252.509 251.721 257.804 245.164 257.886C245.123 257.886 245.082 257.927 245 257.927V260.595H270.246V257.927H259.59V95.1837L299.467 260.595H303.689L339.508 87.4673V247.583C339.426 253.289 334.836 257.886 329.139 257.927H328.853V260.595H371.353V257.927H360.738V77.0829H371.435Z" fill="white"/>
<path fill-rule="evenodd" clip-rule="evenodd" d="M755.819 77.0829C765.368 77.0829 773.073 92.5158 773.073 111.643H775.737V74.415H698.729V77.0829C704.59 77.0829 709.303 81.8441 709.303 87.7135V247.255C709.303 253.124 704.549 257.886 698.729 257.886V260.554H775.737V223.285H773.073C773.073 242.453 765.368 257.886 755.819 257.886H730.573V168.819H746.516C752.377 168.819 757.131 178.382 757.131 190.08H759.795V144.889H757.131C757.131 156.587 752.336 166.151 746.516 166.151H730.573V77.0829H755.819Z" fill="white"/>
<path fill-rule="evenodd" clip-rule="evenodd" d="M413.113 203.377L431.147 118.825L449.959 203.377H413.113ZM481.147 247.254L483.483 257.884L442.623 71.7461H438.36L401.31 247.254C398.892 253.164 392.171 257.884 386.351 257.884V260.552H411.843V257.884H401.761L412.663 206.004H450.655L461.803 257.884H451.188V260.552H494.221V257.884C488.237 257.884 482.459 253.41 481.147 247.254Z" fill="white"/>
<path fill-rule="evenodd" clip-rule="evenodd" d="M837.09 164.836V74.414H847.705C862.295 74.414 874.262 92.2685 874.262 114.31V124.94C874.262 146.981 862.295 164.836 847.705 164.836H837.09ZM906.106 243.272C906.106 248.321 903.688 252.343 900.778 252.343C897.869 252.343 895.451 248.321 895.451 243.272V207.399C895.451 187.739 881.639 170.993 860.41 166.19C881.639 161.388 895.451 144.642 895.451 124.94V114.31C895.451 90.914 876.311 71.7871 847.664 71.7871H805.164V74.455C811.065 74.455 815.778 79.2158 815.778 85.0852V85.0446V244.709V244.627C815.778 250.496 811.065 255.216 805.205 255.257H805.123V257.925H847.623V255.257H837.008V167.504H847.623C862.213 167.504 874.18 185.317 874.18 207.399V243.272C874.18 252.836 881.885 260.593 891.434 260.593C901.024 260.593 908.729 252.836 908.729 243.272H906.106Z" fill="white"/>
<path fill-rule="evenodd" clip-rule="evenodd" d="M666.352 77.0829V74.415H623.852V77.0829C629.713 77.0829 634.426 81.8441 634.426 87.7135V247.255C634.426 253.124 629.672 257.886 623.852 257.886V260.554H666.352V257.886H655.737V77.0419H666.352V77.0829Z" fill="white"/>
<path fill-rule="evenodd" clip-rule="evenodd" d="M292.788 38.6232C292.788 38.8285 292.788 38.9923 292.747 39.1565C292.706 39.3207 292.665 39.4442 292.583 39.5673C292.501 39.6905 292.419 39.7726 292.337 39.8136C292.255 39.8547 292.132 39.8957 292.05 39.8957H277.788C277.501 39.8957 277.214 39.7726 276.927 39.5673C276.64 39.3621 276.476 38.9517 276.476 38.4179V10.8769C276.476 10.3023 276.64 9.93276 276.927 9.72756C277.214 9.52236 277.501 9.39918 277.788 9.39918H291.845C291.968 9.39918 292.05 9.44031 292.173 9.48136C292.255 9.5224 292.337 9.60445 292.419 9.72756C292.46 9.85076 292.501 9.97386 292.542 10.1381C292.583 10.3023 292.583 10.5074 292.583 10.7127C292.583 10.9179 292.583 11.0821 292.542 11.2463C292.501 11.4105 292.46 11.5336 292.419 11.6567C292.337 11.7388 292.255 11.8209 292.173 11.903C292.091 11.944 291.968 11.985 291.845 11.985H279.345V22.7388H290.124C290.247 22.7388 290.37 22.7799 290.452 22.821C290.534 22.862 290.616 22.944 290.698 23.0672C290.738 23.1903 290.82 23.3135 290.82 23.4777C290.861 23.6418 290.861 23.847 290.861 24.0522C290.861 24.2574 290.861 24.4217 290.82 24.5858C290.779 24.75 290.738 24.8731 290.698 24.9552C290.616 25.0373 290.575 25.1195 290.452 25.1605C290.37 25.2015 290.247 25.2425 290.124 25.2425H279.345V37.4328H292.05C292.173 37.4328 292.255 37.4738 292.337 37.5149C292.419 37.5559 292.501 37.638 292.583 37.7612C292.665 37.8843 292.706 38.0075 292.747 38.1717C292.788 38.2127 292.788 38.3769 292.788 38.6232ZM419.017 39.4032C419.017 39.4853 418.976 39.5673 418.935 39.6494C418.894 39.7315 418.812 39.8136 418.689 39.8136C418.566 39.8547 418.443 39.8953 418.238 39.9363C418.034 39.9774 417.829 39.9778 417.542 39.9778C417.296 39.9778 417.05 39.9774 416.886 39.9363C416.722 39.8953 416.558 39.8547 416.435 39.8136C416.353 39.7726 416.271 39.6905 416.189 39.6494C416.148 39.5673 416.107 39.4853 416.107 39.4032V11.8619H416.066L404.099 39.5673C404.058 39.6494 404.017 39.6905 403.976 39.7315C403.894 39.7726 403.812 39.8547 403.73 39.8957C403.607 39.9367 403.484 39.9778 403.32 39.9778C403.157 40.0188 402.993 40.0188 402.788 40.0188C402.583 40.0188 402.378 40.0188 402.214 39.9778C402.05 39.9367 401.927 39.9367 401.845 39.8957C401.722 39.8547 401.64 39.8136 401.599 39.7315C401.517 39.6905 401.517 39.6084 401.476 39.5673L390.124 11.8619H390.083V39.4032C390.083 39.4853 390.042 39.5673 390.001 39.6494C389.96 39.7315 389.878 39.8136 389.755 39.8136C389.632 39.8547 389.509 39.8953 389.304 39.9363C389.099 39.9774 388.894 39.9778 388.566 39.9778C388.32 39.9778 388.075 39.9774 387.911 39.9363C387.706 39.8953 387.583 39.8547 387.46 39.8136C387.337 39.7726 387.255 39.6905 387.214 39.6494C387.173 39.5673 387.173 39.4853 387.173 39.4032V10.8358C387.173 10.2612 387.337 9.89176 387.624 9.68646C387.911 9.48127 388.198 9.35822 388.484 9.35822H390.042C390.452 9.35822 390.779 9.39927 391.066 9.48136C391.353 9.56344 391.64 9.68656 391.845 9.85076C392.05 10.0149 392.255 10.2202 392.419 10.4664C392.583 10.7127 392.706 10.959 392.829 11.2463L402.87 35.5037H402.993L413.443 11.3283C413.607 10.9589 413.771 10.6307 413.935 10.3844C414.099 10.1381 414.304 9.93286 414.509 9.76866C414.714 9.60449 414.919 9.48132 415.165 9.44027C415.37 9.35818 415.657 9.35822 415.902 9.35822H417.624C417.788 9.35822 417.911 9.39923 418.075 9.44027C418.238 9.48132 418.361 9.56336 418.484 9.68646C418.607 9.80966 418.73 9.93286 418.812 10.1381C418.894 10.3023 418.935 10.5485 418.935 10.8358V39.4032H419.017ZM532.663 18.1008C532.663 19.5374 532.418 20.8097 531.967 22C531.475 23.1903 530.819 24.2165 529.918 25.0374C529.016 25.8993 527.909 26.5559 526.639 27.0074C525.368 27.5 523.811 27.7053 521.967 27.7053H517.991V39.3621C517.991 39.4442 517.95 39.5263 517.909 39.6084C517.868 39.6905 517.786 39.7726 517.663 39.8136C517.541 39.8547 517.418 39.8953 517.213 39.9363C517.008 39.9774 516.803 39.9778 516.516 39.9778C516.27 39.9778 516.024 39.9774 515.819 39.9363C515.655 39.8953 515.491 39.8547 515.368 39.8136C515.245 39.7726 515.204 39.6905 515.123 39.6494C515.082 39.5673 515.041 39.4853 515.041 39.4032V10.8358C515.041 10.2612 515.204 9.89176 515.491 9.68646C515.778 9.48127 516.065 9.35822 516.352 9.35822H522.541C523.155 9.35822 523.77 9.39923 524.344 9.44027C524.918 9.48132 525.614 9.60441 526.393 9.80966C527.172 10.0149 527.95 10.3433 528.77 10.8358C529.59 11.3283 530.245 11.944 530.819 12.6418C531.393 13.3806 531.844 14.2015 532.131 15.1045C532.5 16.0075 532.663 17.0336 532.663 18.1008ZM529.631 18.3471C529.631 17.0336 529.385 15.9254 528.852 14.9814C528.319 14.0784 527.704 13.3806 526.967 12.9291C526.229 12.4776 525.45 12.1904 524.631 12.0672C523.811 11.9441 523.073 11.903 522.336 11.903H517.991V25.2015H522.131C523.483 25.2015 524.59 25.0373 525.491 24.709C526.393 24.3806 527.131 23.8881 527.745 23.3134C528.36 22.6978 528.811 22 529.139 21.1381C529.467 20.2761 529.631 19.3732 529.631 18.3471ZM651.311 24.2575C651.311 26.6792 651.024 28.8955 650.491 30.8657C649.959 32.8358 649.098 34.5187 647.991 35.9142C646.885 37.3098 645.45 38.3769 643.77 39.1158C642.09 39.8547 640.082 40.2651 637.827 40.2651C635.573 40.2651 633.606 39.8957 632.008 39.1979C630.368 38.5 629.057 37.4739 627.991 36.1194C626.967 34.806 626.188 33.1642 625.696 31.2761C625.204 29.347 624.959 27.2127 624.959 24.791C624.959 22.4104 625.245 20.235 625.778 18.2649C626.311 16.3358 627.172 14.653 628.278 13.2985C629.385 11.903 630.819 10.8769 632.5 10.097C634.18 9.35818 636.188 8.94773 638.442 8.94773C640.655 8.94773 642.582 9.31718 644.18 10.015C645.778 10.7127 647.131 11.7388 648.196 13.0523C649.262 14.3657 650.041 15.9665 650.532 17.8545C651.065 19.7426 651.311 21.8769 651.311 24.2575ZM648.278 24.5038C648.278 22.6978 648.114 21.0149 647.786 19.4141C647.459 17.8544 646.885 16.4589 646.106 15.3097C645.327 14.1604 644.303 13.2165 642.991 12.5598C641.721 11.903 640.122 11.5747 638.196 11.5747C636.311 11.5747 634.713 11.9031 633.401 12.6008C632.09 13.2986 631.065 14.2425 630.245 15.4328C629.426 16.6231 628.852 17.9776 628.483 19.5373C628.114 21.097 627.95 22.7799 627.95 24.5038C627.95 26.3508 628.114 28.0746 628.442 29.6753C628.77 31.2761 629.303 32.6717 630.082 33.8209C630.86 35.0112 631.885 35.9142 633.155 36.5709C634.467 37.2277 636.065 37.556 637.991 37.556C639.918 37.556 641.516 37.1865 642.827 36.4888C644.139 35.791 645.204 34.806 645.983 33.6157C646.803 32.4254 647.336 31.0299 647.704 29.4702C648.114 27.9105 648.278 26.2687 648.278 24.5038ZM641.065 0.820826C641.229 0.656642 641.393 0.492562 641.516 0.410472C641.68 0.328383 641.844 0.246178 642.008 0.164089C642.172 0.123044 642.377 0.082007 642.622 0.040963C642.827 0.040963 643.073 0 643.36 0C643.688 0 643.975 0.040999 644.18 0.082044C644.385 0.123089 644.508 0.205256 644.631 0.287346C644.713 0.369436 644.754 0.451427 644.713 0.574561C644.672 0.697696 644.631 0.820816 644.508 0.943956L639.139 6.11564C638.975 6.27982 638.852 6.40292 638.729 6.485C638.606 6.56709 638.483 6.64927 638.319 6.69031C638.196 6.73136 638.032 6.77236 637.868 6.77236C637.705 6.77236 637.5 6.81345 637.254 6.81345C636.967 6.81345 636.762 6.8134 636.639 6.77236C636.475 6.73132 636.393 6.69023 636.352 6.60814C636.311 6.52605 636.311 6.44396 636.311 6.32083C636.352 6.19769 636.434 6.07456 636.557 5.95142L641.065 0.820826ZM764.631 39.3621C764.631 39.4853 764.631 39.5673 764.59 39.6494C764.549 39.7315 764.467 39.7726 764.344 39.8547C764.221 39.8957 764.098 39.9367 763.893 39.9778C763.688 40.0188 763.442 40.0188 763.155 40.0188C762.909 40.0188 762.663 40.0188 762.5 39.9778C762.295 39.9367 762.172 39.8957 762.049 39.8136C761.926 39.7315 761.803 39.6494 761.721 39.5263C761.639 39.4032 761.557 39.239 761.516 39.0748L758.647 31.6455C758.319 30.8246 757.95 30.0038 757.582 29.265C757.213 28.5262 756.762 27.8695 756.229 27.3359C755.696 26.8023 755.041 26.3508 754.303 26.0635C753.565 25.7351 752.664 25.5709 751.598 25.5709H748.442V39.3621C748.442 39.4442 748.401 39.5263 748.36 39.6084C748.319 39.6905 748.237 39.7726 748.114 39.7726C747.991 39.8136 747.868 39.8547 747.663 39.8957C747.459 39.9367 747.254 39.9363 746.967 39.9363C746.721 39.9363 746.475 39.9367 746.27 39.8957C746.065 39.8547 745.942 39.8136 745.819 39.7726C745.696 39.7315 745.655 39.6494 745.573 39.6084C745.532 39.5263 745.491 39.4442 745.491 39.3621V10.7948C745.491 10.2202 745.655 9.85076 745.942 9.64553C746.229 9.44031 746.516 9.31714 746.803 9.31714H752.541C753.278 9.31714 753.934 9.31718 754.426 9.35822C754.918 9.39927 755.368 9.44035 755.778 9.52244C756.926 9.72766 757.95 10.056 758.811 10.5075C759.672 10.959 760.409 11.5336 760.942 12.1904C761.516 12.8471 761.926 13.6269 762.213 14.4478C762.5 15.2687 762.622 16.2127 762.622 17.1567C762.622 18.1418 762.459 19.0448 762.213 19.8657C761.926 20.6455 761.557 21.3433 761.024 21.959C760.491 22.5747 759.877 23.1082 759.18 23.5186C758.442 23.9701 757.663 24.3396 756.803 24.6269C757.295 24.8732 757.786 25.1605 758.196 25.4888C758.606 25.8172 759.016 26.2687 759.344 26.7612C759.713 27.2537 760.041 27.8284 760.368 28.444C760.696 29.1008 760.983 29.7985 761.311 30.5783L764.18 37.7202C764.385 38.2538 764.508 38.6642 764.59 38.8696C764.59 39.1158 764.631 39.28 764.631 39.3621ZM759.549 17.5261C759.549 16.2127 759.262 15.1045 758.688 14.2015C758.114 13.2985 757.131 12.6418 755.778 12.2724C755.327 12.1493 754.836 12.0671 754.303 11.985C753.77 11.944 753.073 11.903 752.213 11.903H748.442V23.1083H752.827C754.016 23.1083 755 22.9851 755.86 22.6567C756.721 22.3694 757.418 21.9589 757.95 21.4664C758.524 20.9739 758.934 20.3582 759.18 19.7015C759.426 19.0448 759.549 18.306 759.549 17.5261ZM861.27 39.4032C861.27 39.4853 861.229 39.5673 861.188 39.6494C861.147 39.7315 861.065 39.8136 860.942 39.8136C860.819 39.8547 860.696 39.8953 860.491 39.9363C860.286 39.9774 860.082 39.9778 859.795 39.9778C859.549 39.9778 859.303 39.9774 859.098 39.9363C858.893 39.8953 858.77 39.8547 858.647 39.8136C858.524 39.7726 858.442 39.6905 858.401 39.6494C858.36 39.5673 858.319 39.4853 858.319 39.4032V9.80966C858.319 9.72756 858.36 9.64545 858.401 9.56336C858.442 9.48127 858.524 9.39918 858.647 9.39918C858.77 9.35814 858.893 9.3171 859.098 9.27605C859.262 9.23501 859.508 9.23509 859.754 9.23509C860.041 9.23509 860.286 9.23501 860.45 9.27605C860.655 9.3171 860.778 9.35814 860.901 9.39918C861.024 9.44023 861.106 9.52232 861.147 9.56336C861.188 9.64545 861.229 9.72756 861.229 9.80966V39.4032H861.27ZM981.844 24.2575C981.844 26.6792 981.557 28.8955 981.024 30.8657C980.491 32.8358 979.631 34.5187 978.524 35.9142C977.418 37.3098 975.983 38.3769 974.303 39.1158C972.623 39.8547 970.614 40.2651 968.36 40.2651C966.106 40.2651 964.139 39.8957 962.54 39.1979C960.901 38.5 959.59 37.4739 958.524 36.1194C957.5 34.806 956.721 33.1642 956.229 31.2761C955.737 29.347 955.491 27.2127 955.491 24.791C955.491 22.4104 955.778 20.235 956.311 18.2649C956.844 16.3358 957.705 14.653 958.811 13.2985C959.918 11.903 961.352 10.8769 963.032 10.097C964.713 9.35818 966.721 8.94773 968.975 8.94773C971.188 8.94773 973.114 9.31718 974.713 10.015C976.311 10.7127 977.663 11.7388 978.729 13.0523C979.795 14.3657 980.573 15.9665 981.065 17.8545C981.598 19.7426 981.844 21.8769 981.844 24.2575ZM978.811 24.5038C978.811 22.6978 978.647 21.0149 978.319 19.4141C977.991 17.8544 977.418 16.4589 976.639 15.3097C975.86 14.1604 974.836 13.2165 973.524 12.5598C972.254 11.903 970.655 11.5747 968.729 11.5747C966.844 11.5747 965.245 11.9031 963.934 12.6008C962.623 13.2986 961.598 14.2425 960.778 15.4328C959.959 16.6231 959.385 17.9776 959.016 19.5373C958.647 21.097 958.483 22.7799 958.483 24.5038C958.483 26.3508 958.647 28.0746 958.975 29.6753C959.303 31.2761 959.836 32.6717 960.614 33.8209C961.393 35.0112 962.418 35.9142 963.688 36.5709C965 37.2277 966.598 37.556 968.524 37.556C970.45 37.556 972.049 37.1865 973.36 36.4888C974.672 35.791 975.737 34.806 976.516 33.6157C977.336 32.4254 977.909 31.0299 978.237 29.4702C978.647 27.9105 978.811 26.2687 978.811 24.5038Z" fill="white"/>
<path d="M72.108 132.471C62.0671 190.344 78.6654 252.034 83.8293 261.105C-29.5313 249.079 8.62443 100.209 11.2884 66.4707C58.4605 79.8512 103.092 148.437 107.436 198.635C108.174 147.657 157.026 80.7132 205.551 65.1162C221.494 197.485 211.617 248.422 129.526 261.023C142.19 233.441 142.395 163.5 142.395 132.798" stroke="white" stroke-width="5" stroke-miterlimit="22.9256" stroke-linecap="round" stroke-linejoin="round"/>
<path d="M75.7964 118.474C79.6898 89.25 90.1816 62.0783 107.518 37C124.403 62.3246 134.731 89.5783 139.116 118.597" stroke="white" stroke-width="5" stroke-miterlimit="22.9256" stroke-linecap="round" stroke-linejoin="round"/>
</svg>
