<svg width="76" height="52" viewBox="0 0 76 52" fill="none" xmlns="http://www.w3.org/2000/svg">
    <mask id="mask0_10_100" style="mask-type:luminance" maskUnits="userSpaceOnUse" x="0" y="0"
        width="76" height="52">
        <path d="M0.817749 0.791504H75.6667V51.7394H0.817749V0.791504Z" fill="white" />
    </mask>
    <g mask="url(#mask0_10_100)">
        <path
            d="M4.95837 11.4113H60.6667C61.2136 11.4113 61.7344 11.5155 62.2344 11.7238C62.7396 11.9269 63.1823 12.2238 63.5625 12.6092C63.948 12.9894 64.2448 13.4321 64.448 13.9373C64.6563 14.4373 64.7605 14.9582 64.7605 15.4998V21.8748H0.864624V15.4998C0.864624 14.9582 0.968791 14.4373 1.17712 13.9373C1.38546 13.4373 1.68233 12.9946 2.06254 12.6092C2.44796 12.229 2.89067 11.9321 3.39067 11.7238C3.89067 11.5155 4.41671 11.4113 4.95837 11.4113ZM0.864624 48.1092C0.864624 48.6509 0.968791 49.1717 1.17712 49.6717C1.38546 50.1769 1.68233 50.6196 2.06254 51.005C2.44796 51.3853 2.89067 51.6821 3.39067 51.8905C3.89067 52.0988 4.4115 52.2082 4.95837 52.2082H60.6667C61.2136 52.2082 61.7344 52.104 62.2344 51.8957C62.7396 51.6873 63.1823 51.3905 63.5625 51.005C63.948 50.6196 64.2448 50.1769 64.448 49.6769C64.6563 49.1717 64.7605 48.6509 64.7605 48.1092V30.005H0.864624V48.1092ZM71.0938 42.578C71.6459 42.578 72.1823 42.4738 72.6928 42.2603C73.2084 42.0467 73.6615 41.7446 74.0521 41.354C74.448 40.9582 74.75 40.505 74.9636 39.9946C75.1719 39.479 75.2813 38.9478 75.2813 38.3905V4.979C75.2813 4.42692 75.1719 3.89046 74.9636 3.38005C74.75 2.86442 74.448 2.4113 74.0521 2.02067C73.6615 1.62484 73.2084 1.32275 72.6928 1.10921C72.1823 0.900879 71.6459 0.791504 71.0938 0.791504H14.0209C13.4636 0.791504 12.9271 0.900879 12.4167 1.10921C11.9011 1.32275 11.448 1.62484 11.0573 2.02067C10.6615 2.4113 10.3594 2.86442 10.1511 3.38005C9.93754 3.89046 9.82817 4.42692 9.82817 4.979V5.4165H66.4636C67.0209 5.4165 67.5573 5.52588 68.0678 5.73421C68.5834 5.94776 69.0365 6.24984 69.4323 6.64567C69.823 7.0363 70.1303 7.48942 70.3438 8.00505C70.5573 8.51546 70.6615 9.05192 70.6667 9.604V42.578H71.0938Z"
            fill="white" />
    </g>
</svg>
    