<svg width="32" height="36" viewBox="0 0 32 36" fill="none" xmlns="http://www.w3.org/2000/svg">
    <mask id="mask0_10_18" style="mask-type:luminance" maskUnits="userSpaceOnUse" x="0" y="0"
        width="32" height="36">
        <path d="M0.666748 0.666504H31.2084V35.3228H0.666748V0.666504Z" fill="white" />
    </mask>
    <g mask="url(#mask0_10_18)">
        <path
            d="M31.0938 33.6458L23.6927 23.8541C24.073 23.4426 24.4219 23.0103 24.7448 22.552C25.0677 22.0937 25.3646 21.6197 25.625 21.1249C25.8907 20.6353 26.1198 20.1249 26.3177 19.5989C26.5157 19.078 26.6823 18.5468 26.8125 17.9999C26.9427 17.4583 27.0417 16.9062 27.099 16.3489C27.1615 15.7916 27.1875 15.2343 27.1771 14.677C27.1667 14.1197 27.125 13.5624 27.0417 13.0051C26.9636 12.453 26.849 11.9062 26.698 11.3697C26.5469 10.828 26.3646 10.302 26.1459 9.78638C25.9271 9.27075 25.6823 8.77075 25.4011 8.28638C25.1198 7.802 24.8073 7.33846 24.4688 6.89055C24.1302 6.44784 23.7657 6.02596 23.3698 5.62492C22.9792 5.22909 22.5625 4.8593 22.1198 4.51034C21.6823 4.16659 21.2188 3.84888 20.7396 3.56242C20.2605 3.27596 19.7605 3.02075 19.25 2.7968C18.7344 2.57284 18.2136 2.38534 17.6771 2.22909C17.1355 2.06763 16.5938 1.94784 16.0417 1.8593C15.4896 1.77075 14.9323 1.71867 14.3698 1.70305C13.8125 1.68742 13.2552 1.70305 12.698 1.75513C12.1407 1.81242 11.5886 1.90096 11.0417 2.02075C10.5 2.14575 9.96358 2.30721 9.43754 2.49471C8.9115 2.68742 8.40108 2.91138 7.90108 3.1718C7.40629 3.427 6.92712 3.71346 6.46358 4.03117C6.00525 4.34888 5.56775 4.69263 5.15108 5.06763C4.73441 5.44263 4.34379 5.83846 3.974 6.26034C3.60941 6.68742 3.27087 7.13013 2.96358 7.59367C2.65108 8.06242 2.37504 8.5468 2.12504 9.0468C1.87504 9.5468 1.6615 10.0624 1.4792 10.5937C1.29691 11.1197 1.14587 11.6614 1.03129 12.2083C0.916703 12.7551 0.838579 13.3072 0.791704 13.8645C0.750037 14.4218 0.739621 14.9843 0.765662 15.5416C0.796912 16.0989 0.859412 16.6562 0.953162 17.2083C1.05212 17.7551 1.18233 18.302 1.349 18.8333C1.51566 19.3697 1.71358 19.8905 1.94795 20.401C2.18233 20.9062 2.44274 21.401 2.73962 21.8749C3.03129 22.3541 3.35941 22.8072 3.70837 23.2395C4.06254 23.677 4.44275 24.0833 4.849 24.4739C5.25004 24.8593 5.67712 25.2187 6.13025 25.5468C6.57816 25.8801 7.05212 26.1822 7.5417 26.453C8.02608 26.7291 8.53129 26.9687 9.05212 27.177C9.57296 27.3853 10.1042 27.5572 10.6459 27.6978C11.1823 27.8385 11.7344 27.9426 12.2865 28.0155C12.8438 28.0885 13.4011 28.1249 13.9584 28.1249C14.5209 28.1249 15.0782 28.0885 15.6302 28.0155C16.1875 27.9478 16.7344 27.8437 17.2761 27.703C17.8177 27.5624 18.349 27.3853 18.8698 27.1822C19.3907 26.9739 19.8959 26.7343 20.3802 26.4635C20.8698 26.1874 21.3438 25.8853 21.7917 25.5572L29.0677 35.1822C29.2813 35.4635 29.5625 35.6249 29.9115 35.677C30.2605 35.7239 30.5782 35.6405 30.8594 35.4322C31.1407 35.2187 31.3073 34.9374 31.3542 34.5885C31.4063 34.2395 31.323 33.9218 31.1094 33.6405L31.0938 33.6458ZM2.89587 14.9062C2.89587 14.1822 2.96358 13.4583 3.10941 12.7447C3.25004 12.0312 3.45837 11.3385 3.73962 10.6666C4.01566 9.99471 4.3542 9.3593 4.76045 8.75513C5.1667 8.15096 5.62504 7.58846 6.13545 7.07805C6.65108 6.56242 7.21358 6.10409 7.81775 5.69784C8.42191 5.29159 9.05733 4.95305 9.7292 4.6718C10.4011 4.39575 11.0938 4.18742 11.8073 4.04159C12.5209 3.90096 13.2396 3.83325 13.9688 3.83325C14.698 3.83325 15.4167 3.90096 16.1302 4.04159C16.8438 4.18742 17.5365 4.39575 18.2084 4.6718C18.8802 4.95305 19.5209 5.29159 20.125 5.69784C20.7292 6.09888 21.2865 6.56242 21.8021 7.07284C22.3177 7.58846 22.7761 8.15096 23.1771 8.75513C23.5834 9.3593 23.9219 9.99471 24.2032 10.6666C24.4792 11.3385 24.6927 12.0312 24.8334 12.7447C24.974 13.4583 25.0469 14.177 25.0469 14.9062C25.0469 15.6353 24.974 16.3541 24.8334 17.0676C24.6927 17.7812 24.4792 18.4739 24.2032 19.1458C23.9219 19.8176 23.5834 20.453 23.1771 21.0624C22.7761 21.6666 22.3125 22.2239 21.8021 22.7395C21.2865 23.2551 20.7292 23.7135 20.1198 24.1145C19.5157 24.5208 18.8802 24.8593 18.2084 25.1405C17.5365 25.4166 16.8438 25.6249 16.1302 25.7708C15.4167 25.9114 14.698 25.9843 13.9688 25.9843C13.2396 25.9791 12.5209 25.9114 11.8073 25.7708C11.0938 25.6249 10.4011 25.4166 9.7292 25.1405C9.05733 24.8593 8.42191 24.5208 7.81775 24.1145C7.21358 23.7135 6.65108 23.2499 6.14066 22.7395C5.62504 22.2239 5.1667 21.6666 4.76045 21.0624C4.35941 20.453 4.01566 19.8176 3.73962 19.1458C3.45837 18.4739 3.25004 17.7812 3.10941 17.0676C2.96358 16.3541 2.89587 15.6353 2.89587 14.9062Z"
            fill="#69443C" />
    </g>
</svg>