<svg width="54" height="55" viewBox="0 0 54 55" fill="none" xmlns="http://www.w3.org/2000/svg">
    <mask id="mask0_10_862" style="mask-type:luminance" maskUnits="userSpaceOnUse" x="0" y="0"
        width="54" height="55">
        <path d="M0.890625 0.859375H53.8333V54.8021H0.890625V0.859375Z" fill="white" />
    </mask>
    <g mask="url(#mask0_10_862)">
        <path
            d="M52.5885 28.0314L53.901 22.7345C54.026 22.245 53.9063 21.7241 53.5833 21.3335L50.1094 17.1304L48.9792 11.7866C48.8802 11.297 48.5469 10.8804 48.0885 10.6668L43.1302 8.38558L39.8073 4.06266C39.5052 3.66683 39.0365 3.43766 38.5417 3.43766C38.276 3.43766 39.9635 3.41162 33.0573 3.53141L28.1823 1.0835C27.7344 0.859538 27.2031 0.859538 26.75 1.0835L21.875 3.53141L16.4167 3.43766C15.8854 3.43246 15.4219 3.67725 15.125 4.06266L11.8021 8.38558L6.84896 10.6668C6.39063 10.8804 6.05729 11.297 5.95313 11.7866L4.82813 17.1304L1.34896 21.3335C1.03125 21.7241 0.91146 22.245 1.03125 22.7345L2.34375 28.0314L1.03125 33.3283C0.91146 33.8179 1.03125 34.3387 1.34896 34.7241L4.82813 38.9325L5.95313 44.271C6.05729 44.7658 6.39063 45.1825 6.84896 45.3908L11.8021 47.672L15.125 52.0002C15.4271 52.396 15.8958 52.6252 16.3906 52.6252C16.6615 52.6252 14.974 52.6512 21.875 52.5262L26.75 54.9793C27.2031 55.2033 27.7344 55.2033 28.1823 54.9793L33.0573 52.5262L38.5156 52.6252C39.0469 52.6304 39.5156 52.3856 39.8073 52.0002L43.1302 47.672L48.0885 45.3908C48.5469 45.1825 48.875 44.7658 48.9792 44.271L50.1042 38.9325L53.5833 34.7241C53.9063 34.3387 54.026 33.8179 53.901 33.3283L52.5885 28.0314ZM27.4688 45.5783C17.7917 45.5783 9.92188 37.7033 9.92188 28.0314C9.92188 18.3543 17.7917 10.4845 27.4688 10.4845C37.1406 10.4845 45.0104 18.3543 45.0104 28.0314C45.0104 37.7033 37.1406 45.5783 27.4688 45.5783Z"
            fill="white" />
    </g>
    <path
        d="M27.4688 13.6772C19.5521 13.6772 13.1094 20.1147 13.1094 28.0314C13.1094 35.9481 19.5521 42.3856 27.4688 42.3856C35.3854 42.3856 41.8229 35.9481 41.8229 28.0314C41.8229 20.1147 35.3854 13.6772 27.4688 13.6772ZM34.974 24.3752L27 32.3491C26.375 32.9689 25.3646 32.9689 24.7448 32.3491L19.9583 27.5627C19.3385 26.9429 19.3385 25.9325 19.9583 25.3075C20.5833 24.6825 21.5937 24.6825 22.2135 25.3075L25.8698 28.9637L32.7188 22.12C33.3438 21.495 34.3542 21.495 34.974 22.12C35.599 22.7397 35.599 23.7502 34.974 24.3752Z"
        fill="white" />
</svg>
    