<svg width="42" height="42" viewBox="0 0 42 42" fill="none" xmlns="http://www.w3.org/2000/svg">
    <mask id="mask0_0_1" style="mask-type:luminance" maskUnits="userSpaceOnUse" x="0" y="0"
        width="42" height="42">
        <path d="M0 0H41.9115V41.9219H0V0Z" fill="white" />
    </mask>
    <g mask="url(#mask0_0_1)">
        <path
            d="M42.0051 21.0158C42.0051 32.6096 32.6041 42.0054 21.0103 42.0054C17.9114 42.0106 14.9583 41.3596 12.1458 40.0471C10.427 39.245 8.63535 39.0262 6.77077 39.3908L3.49472 40.0366C2.1041 40.3127 1.02597 38.8439 1.69264 37.5991C2.98952 35.1825 3.09368 32.2971 1.94264 29.8075C0.661391 27.0314 0.020765 24.12 0.015557 21.0627C-0.0104843 9.45852 9.37493 0.0366409 20.9791 0.0210155C32.5885 0.00539021 42.0051 9.40643 42.0051 21.0158Z"
            fill="#803821" />
    </g>
    <path
        d="M36.302 21.0153C36.302 22.0153 36.203 23.0101 36.0103 23.9945C35.8124 24.9788 35.5208 25.9372 35.1405 26.8643C34.7551 27.7913 34.2812 28.6716 33.7239 29.5101C33.1666 30.3434 32.5312 31.1143 31.8228 31.8226C31.1145 32.5361 30.3437 33.1663 29.5051 33.7288C28.6718 34.2861 27.7916 34.7549 26.8645 35.1403C25.9374 35.5257 24.9791 35.8122 23.9947 36.0101C23.0103 36.2028 22.0155 36.3018 21.0103 36.3018C20.0103 36.3018 19.0155 36.2028 18.0312 36.0101C17.0468 35.8122 16.0885 35.5257 15.1614 35.1403C14.2343 34.7549 13.3541 34.2861 12.5155 33.7288C11.6822 33.1663 10.9114 32.5361 10.1978 31.8226C9.4895 31.1143 8.85409 30.3434 8.29679 29.5101C7.7395 28.6716 7.27075 27.7913 6.88534 26.8643C6.49992 25.9372 6.21346 24.9788 6.01554 23.9945C5.81763 23.0101 5.72388 22.0153 5.72388 21.0153C5.72388 20.0101 5.81763 19.0153 6.01554 18.0309C6.21346 17.0465 6.49992 16.0882 6.88534 15.1611C7.27075 14.234 7.7395 13.3538 8.29679 12.5205C8.85409 11.682 9.4895 10.9111 10.1978 10.2028C10.9114 9.48926 11.6822 8.85905 12.5155 8.30176C13.3541 7.74447 14.2343 7.27051 15.1614 6.88509C16.0885 6.50488 17.0468 6.21322 18.0312 6.0153C19.0155 5.82259 20.0103 5.72363 21.0103 5.72363C22.0155 5.72363 23.0103 5.82259 23.9947 6.0153C24.9791 6.21322 25.9374 6.50488 26.8645 6.88509C27.7916 7.27051 28.6718 7.74447 29.5051 8.30176C30.3437 8.85905 31.1145 9.48926 31.8228 10.2028C32.5312 10.9111 33.1666 11.682 33.7239 12.5205C34.2812 13.3538 34.7551 14.234 35.1405 15.1611C35.5208 16.0882 35.8124 17.0465 36.0103 18.0309C36.203 19.0153 36.302 20.0101 36.302 21.0153Z"
        fill="white" />
    <path
        d="M33.5728 21.0156C33.5728 21.8385 33.4895 22.6563 33.328 23.4635C33.1718 24.2708 32.9322 25.0573 32.6145 25.8177C32.302 26.5833 31.9113 27.3073 31.453 27.9896C30.9947 28.6771 30.4738 29.3125 29.8905 29.8958C29.3072 30.4792 28.677 31 27.9895 31.4583C27.302 31.9167 26.578 32.3021 25.8176 32.6146C25.0572 32.9323 24.2707 33.1719 23.4634 33.3333C22.6509 33.4948 21.8384 33.5729 21.0103 33.5729C20.1874 33.5729 19.3697 33.4948 18.5624 33.3333C17.7551 33.1719 16.9686 32.9323 16.203 32.6146C15.4426 32.3021 14.7186 31.9167 14.0363 31.4583C13.3488 31 12.7134 30.4792 12.1301 29.8958C11.5468 29.3125 11.0259 28.6771 10.5676 27.9896C10.1093 27.3073 9.72384 26.5833 9.40613 25.8177C9.09363 25.0573 8.85404 24.2708 8.69259 23.4635C8.53113 22.6563 8.453 21.8385 8.453 21.0156C8.453 20.1875 8.53113 19.3698 8.69259 18.5625C8.85404 17.7552 9.09363 16.9687 9.40613 16.2083C9.72384 15.4427 10.1093 14.7187 10.5676 14.0365C11.0259 13.349 11.5468 12.7135 12.1301 12.1302C12.7134 11.5469 13.3488 11.026 14.0363 10.5729C14.7186 10.1146 15.4426 9.72396 16.203 9.41146C16.9686 9.09375 17.7551 8.85417 18.5624 8.69271C19.3697 8.53646 20.1874 8.45312 21.0103 8.45312C21.8384 8.45312 22.6509 8.53646 23.4634 8.69271C24.2707 8.85417 25.0572 9.09375 25.8176 9.41146C26.578 9.72396 27.302 10.1146 27.9895 10.5729C28.677 11.026 29.3072 11.5469 29.8905 12.1302C30.4738 12.7135 30.9947 13.349 31.453 14.0365C31.9113 14.7187 32.302 15.4427 32.6145 16.2083C32.9322 16.9687 33.1718 17.7552 33.328 18.5625C33.4895 19.3698 33.5728 20.1875 33.5728 21.0156Z"
        fill="#803821" />
    <path
        d="M19.1718 18.1923L18.5364 16.2965C18.4634 16.0777 18.3489 15.885 18.1926 15.7131C18.0364 15.5465 17.8541 15.4162 17.6405 15.3225C17.427 15.234 17.2082 15.1871 16.9739 15.1923C16.7447 15.1975 16.5259 15.2444 16.3124 15.3433L15.2916 15.8225C14.9478 15.9787 14.6926 16.2287 14.5259 16.5725C14.3541 16.911 14.3124 17.2652 14.3905 17.635C15.0311 20.5985 17.3853 27.6923 25.3384 28.5777C25.6614 28.6142 25.9686 28.5569 26.2551 28.411C26.5468 28.2652 26.7707 28.0465 26.9322 27.7652L27.4582 26.8329C27.5624 26.6454 27.6301 26.4475 27.6561 26.234C27.6822 26.0204 27.6666 25.8069 27.6093 25.5985C27.552 25.3954 27.4582 25.2079 27.328 25.036C27.1926 24.8642 27.0311 24.7287 26.8489 24.6246L26.8332 24.6194L25.4166 23.8277C25.1041 23.6558 24.7655 23.5933 24.4114 23.6402C24.052 23.6871 23.7447 23.8433 23.4895 24.0933C23.2343 24.3485 22.9322 24.4996 22.578 24.5465C22.2186 24.5985 21.8853 24.536 21.5728 24.3642C20.7082 23.8954 19.5311 23.0881 18.703 21.8902C18.5103 21.6194 18.4114 21.3173 18.4114 20.984C18.4061 20.6506 18.4947 20.3433 18.6822 20.0621L18.9843 19.6037C19.2759 19.1662 19.3384 18.6975 19.1718 18.1923Z"
        fill="white" />
</svg>
    