<svg width="50" height="50" viewBox="0 0 50 50" fill="none" xmlns="http://www.w3.org/2000/svg">
    <path fill-rule="evenodd" clip-rule="evenodd"
        d="M25 50C38.8071 50 50 38.8071 50 25C50 11.1929 38.8071 0 25 0C11.1929 0 0 11.1929 0 25C0 38.8071 11.1929 50 25 50ZM30.7774 11.1285C32.5906 11.8807 34.2358 12.9863 35.6171 14.3811C37.0083 15.7652 38.1101 17.4109 38.8626 19.2234C39.6151 21.0358 40.0017 22.9792 40 24.9417C39.9925 33.1763 33.291 39.8777 25.064 39.8777H25.0565C22.5623 39.8797 20.1076 39.2547 17.9181 38.0601L10 40.1357L12.1114 32.3965C10.8099 30.1269 10.1205 27.5635 10.1205 24.9285C10.1281 16.7015 16.8314 10.0001 25.0565 10.0001C27.0195 9.99273 28.9643 10.3763 30.7774 11.1285ZM18.7356 35.6172C20.6496 36.7499 22.8325 37.3483 25.0565 37.35C31.8954 37.35 37.4648 31.7881 37.4724 24.9342C37.476 23.304 37.1571 21.6892 36.5338 20.1828C35.9106 18.6764 34.9954 17.3083 33.841 16.1572C32.6904 15.0018 31.3225 14.0856 29.8161 13.4614C28.3097 12.8371 26.6946 12.5173 25.064 12.5202C18.2195 12.5202 12.65 18.0915 12.65 24.921C12.6456 27.2566 13.3033 29.5455 14.5467 31.5226L14.8405 31.9953L13.5861 36.5778L18.2835 35.346L18.7356 35.6172ZM29.3169 26.8403C29.6616 26.9683 31.4942 27.8705 31.8653 28.057C31.9394 28.0941 32.0088 28.1274 32.073 28.1583C32.3316 28.2828 32.5071 28.3672 32.581 28.4939C32.6752 28.6503 32.6752 29.3961 32.3663 30.2701C32.0517 31.1421 30.5619 31.9369 29.8462 32.0462C29.202 32.1385 28.394 32.1818 27.4994 31.8955C26.955 31.7222 26.2582 31.4943 25.3729 31.1082C21.8537 29.5866 19.4863 26.1718 19.0593 25.5558C19.0318 25.5161 19.0123 25.488 19.0011 25.4729L18.9981 25.4688C18.7989 25.2039 17.4755 23.4442 17.4755 21.6136C17.4755 19.8854 18.3211 18.9845 18.7079 18.5724L18.7264 18.5527C18.7444 18.5335 18.7614 18.5154 18.777 18.4983C18.9021 18.3564 19.0552 18.2418 19.2266 18.1618C19.3981 18.0817 19.5842 18.0379 19.7734 18.0331H19.7735C20.0239 18.0331 20.2744 18.0331 20.4891 18.0463C20.5158 18.0474 20.5436 18.047 20.5724 18.0466C20.7903 18.0434 21.061 18.0394 21.3272 18.6867C21.46 19.0001 21.6694 19.5092 21.8741 20.007L21.8743 20.0075C22.1543 20.6883 22.4255 21.3477 22.4799 21.4554C22.5722 21.6419 22.6306 21.8566 22.5082 22.109C22.4906 22.1447 22.4742 22.1786 22.4585 22.2111L22.4585 22.2111C22.3652 22.4043 22.2965 22.5467 22.1352 22.7305C22.0658 22.8104 21.9936 22.8982 21.9217 22.9854C21.8005 23.1325 21.6806 23.2781 21.5777 23.3822C21.3913 23.5687 21.1973 23.7683 21.412 24.1412C21.6342 24.5123 22.3782 25.7365 23.4895 26.7254C24.674 27.7861 25.706 28.2355 26.2331 28.4651C26.3396 28.5115 26.4256 28.5489 26.4879 28.5806C26.8609 28.7652 27.0831 28.7369 27.2978 28.4864C27.5126 28.2434 28.2283 27.3978 28.4788 27.0267C28.7236 26.6538 28.9741 26.7178 29.3169 26.8403Z"
        fill="#B0E212" />
</svg>