<svg width="50" height="50" viewBox="0 0 50 50" fill="none" xmlns="http://www.w3.org/2000/svg">
    <g clip-path="url(#clip0_42_2)">
        <path fill-rule="evenodd" clip-rule="evenodd"
            d="M50 25C50 38.8071 38.8071 50 25 50C11.1929 50 0 38.8071 0 25C0 11.1929 11.1929 0 25 0C38.8071 0 50 11.1929 50 25ZM25.2635 14H25.0966L24.7346 14.0019C22.9492 14.0083 21.1639 14.0402 19.3793 14.0975L19.0587 14.1107L18.8975 14.1163L18.5749 14.1275L18.2561 14.1407C16.1748 14.2344 14.1928 14.3844 13.2796 14.6282C12.643 14.8011 12.0629 15.1379 11.5973 15.6052C11.1317 16.0724 10.7969 16.6537 10.6262 17.2909C10.4369 18.0016 10.3038 18.9466 10.2138 19.9198L10.195 20.1148L10.1538 20.6023L10.1388 20.7973L10.1331 20.8948L10.12 21.0879C10.0188 22.6255 10.0038 24.0188 10 24.422V24.6526C10.0094 25.9266 10.0607 27.1997 10.1538 28.4703L10.1688 28.6653L10.1837 28.8622C10.2775 29.9348 10.4163 31.0018 10.6244 31.7836C10.7953 32.4206 11.1303 33.0014 11.5958 33.4683C12.0614 33.9352 12.6414 34.2718 13.2777 34.4445C14.1909 34.692 16.1729 34.8401 18.2542 34.932L18.5749 34.9451L18.8956 34.9582L19.0587 34.9657L19.3775 34.977C21.8902 35.0632 24.2865 35.0745 24.8659 35.0745H25.1322C26.2779 35.0726 34.5454 35.0313 36.7205 34.4463C37.357 34.2735 37.9371 33.9367 38.4027 33.4694C38.8683 33.0021 39.2031 32.4209 39.3738 31.7836C39.5819 30.9999 39.7206 29.9348 39.8144 28.8622L39.8313 28.6672L39.8463 28.4703C39.9813 26.6852 39.9981 24.9714 40 24.6076V24.467C39.9981 24.1163 39.9832 22.5112 39.8613 20.7973L39.8463 20.6023L39.805 20.1148L39.7863 19.9198C39.6963 18.9466 39.5631 18.0035 39.3738 17.2909C39.2031 16.6537 38.8683 16.0724 38.4027 15.6052C37.9371 15.1379 37.357 14.8011 36.7205 14.6282C34.6147 14.0619 26.8049 14.0057 25.2635 14ZM22.0008 29.0535V20.0192L29.7957 24.5382L22.0008 29.0535Z"
            fill="#B0E212" />
    </g>
    <defs>
        <clipPath id="clip0_42_2">
            <rect width="50" height="50" fill="#B0E212" />
        </clipPath>
    </defs>
</svg>